<svg xmlns="http://www.w3.org/2000/svg" viewBox="-33.4 0 459.3 57.8" height="57.8" width="459.3"><path fill="#47a4a5" d="M1.4 40.7h-23v.5c0 2 .6 3.4 1.8 4.3 1.2.9 2.6 1.4 4.1 1.4 1 0 2.3-.1 3.9-.4 1.7-.3 3.5-1.1 5.5-2.5l6.2 8.1C-1.4 53.3-2.7 54.3-4 55c-1.2.7-2.5 1.3-3.7 1.7-1.3.4-2.5.7-3.8.8-1.2.1-2.5.2-3.8.2-2.3 0-4.6-.3-6.8-.9-2.2-.6-4.1-1.5-5.8-2.7-1.7-1.2-3-2.7-4-4.6-1-1.9-1.5-4.1-1.5-6.6V32.7c0-2.6.5-4.8 1.4-6.7.9-1.9 2.2-3.5 3.8-4.9 1.6-1.3 3.4-2.3 5.5-3 2.1-.7 4.3-1 6.6-1 2.5 0 4.8.3 7 1 2.1.7 4 1.7 5.5 3S-.8 24 0 26c.9 1.9 1.3 4.2 1.3 6.8v7.9zm-11.8-7.8c0-1.6-.6-2.8-1.7-3.7-1.1-.9-2.4-1.3-3.8-1.3-1.5 0-2.8.5-3.9 1.4-1.1.9-1.7 2.2-1.7 3.7v.3h11.1zm63.6 7.9c0 2.3-.3 4.5-1 6.5s-1.7 3.7-3.1 5.2c-1.4 1.5-3 2.7-5 3.5-2 .8-4.3 1.2-6.9 1.2H10.3v-55h25.8c2.9 0 5.3.4 7.4 1.2 2 .8 3.7 1.9 5 3.3 1.3 1.4 2.3 3 2.8 4.8.6 1.8.9 3.7.9 5.8 0 1-.1 2-.4 3-.3 1.1-.7 2.1-1.3 3.1-.6 1-1.3 1.9-2.1 2.8-.9.9-1.8 1.5-3 2.1 1.3.6 2.5 1.5 3.5 2.4 1 1 1.8 2.1 2.4 3.2.6 1.1 1.1 2.3 1.4 3.5.3 1.3.5 2.4.5 3.4zM39 18.7c0-1.5-.5-2.8-1.4-3.8-.9-1-2.6-1.5-5-1.5H23v10h9.6c2.2 0 3.9-.4 4.8-1.3 1.1-.8 1.6-2 1.6-3.4zm.5 21.6c0-1.7-.5-3.1-1.5-4.3-1-1.2-2.6-1.8-4.8-1.8H23V46h10.2c2.1 0 3.7-.5 4.7-1.6 1.1-1 1.6-2.4 1.6-4.1zm56.9 2c0 2.5-.4 4.7-1.3 6.6-.9 1.9-2.1 3.5-3.6 4.8-1.6 1.3-3.5 2.3-5.7 2.9-2.2.7-4.6 1-7.2 1-5.6 0-9.9-1.3-13.1-3.9-3.2-2.6-4.8-6.4-4.8-11.5v-9.9c0-2.5.5-4.7 1.4-6.6.9-1.9 2.2-3.5 3.8-4.8 1.6-1.3 3.5-2.3 5.7-2.9 2.2-.7 4.5-1 6.9-1 5.5 0 9.8 1.3 13 4 3.2 2.7 4.8 6.5 4.8 11.6v9.7zm-11.8-9.1c0-2.1-.6-3.5-1.9-4.4-1.3-.9-2.6-1.3-4.1-1.3-1.5 0-2.9.4-4.1 1.3-1.3.9-1.9 2.3-1.9 4.4v8.3c0 2.1.6 3.5 1.9 4.4 1.3.9 2.6 1.3 4.1 1.3 1.4 0 2.8-.4 4.1-1.3 1.3-.9 1.9-2.3 1.9-4.4zm54.7 9.1c0 2.5-.4 4.7-1.3 6.6-.9 1.9-2.1 3.5-3.6 4.8-1.6 1.3-3.5 2.3-5.7 2.9-2.2.7-4.6 1-7.2 1-5.6 0-9.9-1.3-13.1-3.9-3.2-2.6-4.8-6.4-4.8-11.5v-9.9c0-2.5.5-4.7 1.4-6.6.9-1.9 2.2-3.5 3.8-4.8 1.6-1.3 3.5-2.3 5.7-2.9 2.2-.7 4.5-1 6.9-1 5.5 0 9.8 1.3 13 4 3.2 2.7 4.8 6.5 4.8 11.6v9.7zm-11.9-9.1c0-2.1-.6-3.5-1.9-4.4-1.3-.9-2.6-1.3-4.1-1.3-1.5 0-2.9.4-4.1 1.3-1.3.9-1.9 2.3-1.9 4.4v8.3c0 2.1.6 3.5 1.9 4.4 1.3.9 2.6 1.3 4.1 1.3 1.4 0 2.8-.4 4.1-1.3 1.3-.9 1.9-2.3 1.9-4.4zm19.9 24.1V0h12v28.7h2c1.4 0 2.5-.4 3.4-1.1.9-.7 1.6-1.8 2.3-3.1l3.4-6.7h13.3l-4.8 9.8c-.7 1.5-1.5 2.9-2.4 3.9-.9 1.1-2.1 1.9-3.7 2.5 1.1.4 2.1.9 2.8 1.5.7.6 1.4 1.3 1.8 2 .5.7.9 1.5 1.2 2.4.3.9.6 1.7.9 2.6l5 14.9h-13.3l-3.9-12.9c-.5-1.7-1.3-2.9-2.2-3.7-.9-.8-2.4-1.2-4.4-1.2h-1.4v17.8h-12z"/><path fill="#556a72" d="M199.2 26.9v-9.3h4.9l1.8-10h9.6v10h8.9v9.3h-8.9v15.4c0 1.9.4 3.2 1.3 3.8.9.6 2.3.9 4.3.9 1.5 0 3.3-.1 5.5-.2l1 9.5c-1.8.6-3.6 1.1-5.4 1.2-1.8.2-3.5.3-5 .3-2.8 0-5.1-.3-6.8-1-1.7-.7-3.1-1.6-4-2.8-.9-1.2-1.6-2.6-2-4.2-.3-1.6-.5-3.4-.5-5.4V26.9zm57.3 19.2c-.1.4-.2.8-.4 1.2-.1.3-.3.7-.4 1-.2.5-.6 1.2-1.1 2.2-.5 1-1.2 2-2.1 3-.9 1-2 1.8-3.2 2.4-1.3.6-2.8.8-4.6.6-2.9-.6-5.3-1.7-7.2-3.3-1.2-1-2.2-2.2-3-3.6-.2-.4-.4-.9-.6-1.3-.2-.4-.3-.9-.4-1.4V46.6l-.2-1c-.1-.2-.1-.4-.1-.6 0-.2-.1-.5-.1-.7v-1.2c-.1-.3-.1-.6-.1-.9v-1.3c0-2.4.4-4.6 1.3-6.6s2.1-3.6 3.7-4.8c1.6-1.3 3.5-2.3 5.7-3 1.9-.5 4-.9 6.3-1v-4l9.4 9.4-9.4 9.4V36c-.6.1-1.1.2-1.6.4s-1 .4-1.6.8c-1.3.9-1.9 2.4-1.9 4.4 0 .1 0 .2.1.3 0 .1.1.4.2.8h.1c0 .3.1.5.2.6 0 .1.1.2.2.3v.3c.1.1.2.2.2.3l.2.2.2.2c.2.2.3.3.4.3 1.2.9 2.6 1.3 4.2 1.3 1.5 0 2.9-.4 4.1-1.3 1.3-.8 1.9-2.3 1.9-4.4v-3.8c.1.4.1 1 .2 1.8.1.7.1 1.6.1 2.5 0 .7 0 1.4-.1 2-.1.6-.1 1.1-.2 1.5-.3.9-.4 1.3-.4 1.6zM235.7 27c-1.1.9-2 1.9-2.9 3 .2-1.7.6-3.4 1.4-5 .4-1 1-1.8 1.6-2.6.7-.8 1.4-1.5 2.2-2.2 1.5-1.2 3.4-2.2 5.7-3 .5-.1.9-.2 1.4-.3.5-.1.9-.2 1.4-.3v6c-1.5.2-2.9.4-4.1.8-2.5.9-4.8 2-6.7 3.6zm28-6.7c3.2 2.7 4.8 6.5 4.8 11.6v9.7c0 1.3-.1 2.5-.3 3.6-.2 1.1-.5 2.1-1 3.1-.9 2-2.1 3.6-3.7 4.8-1.6 1.3-3.5 2.3-5.7 3-.9.3-1.7.5-2.6.6-.9.1-1.8.3-2.8.4.6-.5 1.1-1 1.6-1.5s.9-1.1 1.4-1.6c1.6-2.1 2.6-4.4 3-6.9.1-.4.2-.9.2-1.4.1-.5.1-1 .1-1.4 0-.2 0-.8-.1-1.8s-.3-2.3-.6-3.8c-.1-.3-.2-.5-.2-.8-.1-.2-.1-.5-.2-.8l6.1-6.1-14.6-14.6c.3-.1.5-.1.8-.1h.8c5.4 0 9.7 1.4 13 4z"/><path fill="#e37863" d="M313 2.2c3.1 0 5.7.5 7.9 1.5s4 2.3 5.4 4c1.4 1.7 2.4 3.5 3 5.6.6 2.1 1 4.2 1 6.5 0 2.2-.4 4.4-1.2 6.5-.8 2.1-1.9 3.9-3.4 5.6-1.5 1.7-3.4 3-5.6 4-2.2 1-4.7 1.5-7.5 1.5h-11v20.1h-12.7V2.2zm-11.4 23.7h9.4c2.4 0 4.1-.6 5.1-1.8 1-1.2 1.5-2.7 1.5-4.4 0-1.7-.5-3.2-1.5-4.4-1-1.2-2.7-1.8-5.2-1.8h-9.4v12.4zm76 13.8c0 3-.6 5.7-1.7 7.9s-2.7 4-4.6 5.5c-1.9 1.4-4 2.5-6.4 3.2-2.4.7-4.8 1-7.3 1h-20.9V2.2h20.9c2.8 0 5.4.3 7.9 1 2.4.7 4.5 1.8 6.3 3.2 1.8 1.4 3.2 3.3 4.2 5.4 1 2.2 1.5 4.8 1.5 7.8v20.1zm-12.7-17.6c0-1.6-.3-2.9-.8-4s-1.2-2-2-2.6c-.8-.7-1.8-1.2-2.8-1.5-1.1-.3-2.1-.5-3.1-.5h-6.6v32.6h6.6c1 0 2.1-.2 3.1-.5 1.1-.3 2-.8 2.8-1.5.8-.7 1.5-1.6 2-2.7s.8-2.5.8-4.1zm35.2 2.3h22v11.3h-22v21.6h-12.7V2.2h38.5v11.3h-25.8z"/></svg>